<svg width="157" height="45" viewBox="0 0 157 45" fill="none" xmlns="http://www.w3.org/2000/svg">
<path d="M62.7102 22.6718C62.7102 14.8261 52.9565 8.42035 40.9242 8.42035C28.8815 8.42734 19.1313 14.8261 19.1313 22.6718C19.1313 22.8779 19.1313 23.4336 19.1313 23.5035C19.1313 31.8314 27.6583 38.5796 40.9172 38.5796C54.2565 38.5796 62.6997 31.8314 62.6997 23.5035V22.6718H62.7102Z" fill="#283373"/>
<path d="M61.868 22.6718C61.868 30.07 52.4917 36.0739 40.9242 36.0739C29.3568 36.0739 19.9735 30.07 19.9735 22.6718C19.9735 15.2735 29.3498 9.26956 40.9172 9.26956C52.4847 9.26956 61.868 15.263 61.868 22.6718Z" fill="#FFCF00"/>
<path d="M33.9628 18.4397C33.9558 18.4571 33.7391 18.6808 33.8824 18.852C34.2144 19.2714 35.2349 19.5125 36.2623 19.2819C36.8809 19.1456 37.6672 18.513 38.429 17.912C39.2503 17.2584 40.075 16.5979 40.8963 16.3358C41.7735 16.0598 42.3291 16.1751 42.7065 16.2939C43.1084 16.4162 43.5907 16.6783 44.3526 17.2515C45.7819 18.3243 51.5447 23.3602 52.5476 24.2269C53.3514 23.8704 56.9125 22.3328 61.7527 21.2669C61.3333 18.6808 59.7572 16.3184 57.3773 14.3858C54.0573 15.7837 49.9965 16.5071 46.0335 14.5745C46.016 14.5675 43.8668 13.5471 41.749 13.5995C38.6003 13.6729 37.2373 15.0323 35.7905 16.4791L33.9628 18.4397Z" fill="white"/>
<path d="M52.3135 24.7756C52.2436 24.7127 45.5407 18.8416 44.0205 17.6988C43.1434 17.0348 42.6506 16.8636 42.1404 16.8042C41.8748 16.7657 41.5078 16.8216 41.2457 16.8915C40.5398 17.0803 39.6172 17.7058 38.796 18.3488C37.9467 19.0303 37.1395 19.6663 36.3986 19.8341C35.448 20.0507 34.2878 19.7991 33.7601 19.4427C33.5434 19.2994 33.3931 19.1281 33.3198 18.9604C33.124 18.5026 33.4805 18.1461 33.5434 18.0832L35.3956 16.0773C35.6123 15.8641 35.8255 15.6474 36.0491 15.4342C35.448 15.5146 34.8959 15.6649 34.3577 15.8082C33.6867 15.9969 33.0437 16.1751 32.3902 16.1751C32.1211 16.1751 30.6533 15.934 30.3772 15.8641C28.7032 15.4063 27.2285 14.959 25.0373 13.9315C22.4058 15.8886 20.6445 18.3418 20.1342 21.0328C20.5082 21.1341 21.1162 21.3123 21.3783 21.3752C27.3368 22.6997 29.1855 24.0662 29.528 24.3457C29.8949 23.9404 30.4122 23.6817 31.0028 23.6817C31.6668 23.6817 32.2574 24.0137 32.6138 24.524C32.9528 24.2549 33.4281 24.0207 34.0362 24.0207C34.3122 24.0207 34.5988 24.0766 34.8854 24.1745C35.5564 24.4086 35.9058 24.856 36.0841 25.2579C36.3077 25.16 36.5873 25.0796 36.9158 25.0796C37.2373 25.0796 37.5693 25.1495 37.9083 25.2928C39.0091 25.7681 39.1804 26.841 39.0825 27.6552C39.1629 27.6447 39.2433 27.6447 39.3237 27.6447C40.6307 27.6447 41.6861 28.7001 41.6861 30.0072C41.6861 30.409 41.5777 30.7865 41.3995 31.1255C41.756 31.3212 42.6611 31.779 43.4474 31.6706C44.0834 31.5903 44.3246 31.3771 44.405 31.2513C44.4679 31.1709 44.5308 31.073 44.4679 30.9997L42.7869 29.13C42.7869 29.13 42.5073 28.8714 42.5982 28.763C42.696 28.6582 42.8673 28.8085 42.9826 28.9063C43.8423 29.6227 44.8802 30.6956 44.8802 30.6956C44.8977 30.7061 44.9676 30.8494 45.352 30.9123C45.684 30.9752 46.2746 30.9367 46.6765 30.5978C46.7848 30.5174 46.8827 30.409 46.9736 30.3042C46.9631 30.3112 46.9631 30.3112 46.9561 30.3217C47.3824 29.7765 46.9107 29.2104 46.9107 29.2104L44.9501 27.0122C44.9501 27.0122 44.674 26.7501 44.7614 26.6453C44.8523 26.5544 45.0305 26.6872 45.1458 26.7955C45.7644 27.3162 46.652 28.2004 47.4908 29.0251C47.6515 29.1405 48.3959 29.6053 49.3709 28.9622C49.9615 28.5673 50.0873 28.0921 50.0664 27.7356C50.0244 27.2603 49.6575 26.9213 49.6575 26.9213L46.9736 24.2269C46.9736 24.2269 46.687 23.9858 46.7953 23.86C46.8757 23.7551 47.0609 23.9054 47.1797 24.0033C48.029 24.7197 50.346 26.841 50.346 26.841C50.3809 26.8689 51.1777 27.4316 52.1632 26.806C52.5092 26.5824 52.7433 26.2399 52.7608 25.8485C52.7957 25.1775 52.3135 24.7756 52.3135 24.7756Z" fill="white"/>
<path d="M39.3132 28.1899C38.9043 28.1829 38.4465 28.4345 38.3836 28.3961C38.3486 28.3786 38.4115 28.2109 38.4465 28.1095C38.4814 28.0117 39.0371 26.3657 37.7056 25.7925C36.6851 25.3557 36.0596 25.8484 35.8429 26.0721C35.7905 26.1245 35.7625 26.1245 35.7521 26.0546C35.7346 25.7576 35.6018 24.9538 34.7176 24.6847C33.456 24.3003 32.6488 25.1775 32.4426 25.499C32.3552 24.7826 31.7471 24.2199 31.0027 24.2199C30.199 24.2199 29.5455 24.8734 29.535 25.6772C29.535 26.481 30.1885 27.1345 30.9958 27.1345C31.3872 27.1345 31.7471 26.9842 32.0057 26.7256C32.0127 26.7326 32.0127 26.7431 32.0127 26.778C31.9498 27.1345 31.8345 28.452 33.2114 28.9867C33.767 29.2034 34.2318 29.0426 34.6267 28.7735C34.7421 28.6931 34.7595 28.7281 34.7421 28.8364C34.6897 29.1754 34.7526 29.8988 35.773 30.3112C36.5418 30.6257 36.9962 30.3042 37.3002 30.0246C37.4365 29.9093 37.4715 29.9268 37.4715 30.105C37.5064 31.08 38.3207 31.8593 39.3062 31.8593C40.3266 31.8593 41.1479 31.0381 41.1479 30.0246C41.1479 29.0146 40.3266 28.2004 39.3132 28.1899Z" fill="white"/>
<path d="M52.5721 24.0661C50.5067 22.2594 45.7295 18.1077 44.4329 17.1431C43.6886 16.5875 43.1888 16.2939 42.7485 16.1576C42.5528 16.0947 42.2767 16.0318 41.9167 16.0318C41.5882 16.0318 41.2388 16.0947 40.8613 16.2135C40.0296 16.4791 39.1909 17.1431 38.3836 17.7791L38.3382 17.8141C37.5868 18.4117 36.811 19.0303 36.2274 19.1561C35.9688 19.2085 35.7101 19.2434 35.448 19.2434C34.798 19.2434 34.1969 19.0582 33.9838 18.7716C33.9453 18.7262 33.9733 18.6458 34.0537 18.5375L34.0641 18.52L35.8779 16.5595C37.3002 15.1372 38.6422 13.7952 41.749 13.7253C41.8014 13.7253 41.8538 13.7253 41.8993 13.7253C43.8249 13.7253 45.7574 14.592 45.9706 14.6898C47.7774 15.5775 49.64 16.0248 51.5167 16.0248C53.4667 16.0248 55.4902 15.5425 57.6115 14.5675C57.3773 14.3683 57.1257 14.1726 56.8776 13.9839C55.0149 14.7912 53.2431 15.2001 51.5272 15.2001C49.7833 15.2001 48.029 14.7807 46.3375 13.949C46.2467 13.9035 44.1184 12.9005 41.9097 12.9005C41.8538 12.9005 41.7909 12.9005 41.7315 12.9005C39.128 12.9634 37.6672 13.886 36.6747 14.6898C35.7171 14.7178 34.8959 14.9415 34.1515 15.1476C33.498 15.3259 32.9284 15.4866 32.3797 15.4866C32.156 15.4866 31.7471 15.4692 31.7087 15.4692C31.0762 15.4517 27.8715 14.6654 25.3239 13.6973C25.0618 13.886 24.8137 14.0748 24.569 14.2635C27.2285 15.3538 30.4681 16.1926 31.4955 16.2659C31.7821 16.2834 32.0861 16.3184 32.3902 16.3184C33.0681 16.3184 33.7391 16.1331 34.3926 15.9444C34.7771 15.8361 35.2069 15.7208 35.6542 15.6299C35.5389 15.7452 35.4131 15.864 35.2978 15.9899L33.4561 17.9818C33.3128 18.1251 32.9878 18.52 33.2044 19.0023C33.2848 19.2015 33.4561 19.3867 33.6867 19.5405C34.127 19.834 34.9134 20.0402 35.6472 20.0402C35.9233 20.0402 36.1819 20.0158 36.4231 19.9598C37.2024 19.7921 38.0097 19.1386 38.8659 18.4571C39.5543 17.9119 40.5328 17.2235 41.2737 17.0173C41.4799 16.9649 41.7385 16.9264 41.9447 16.9264C42.0076 16.9264 42.06 16.9264 42.1159 16.9369C42.6052 16.9998 43.0805 17.1711 43.9297 17.8036C45.4429 18.9394 52.1632 24.8105 52.2226 24.8734C52.2226 24.8734 52.6525 25.2473 52.628 25.8554C52.6105 26.1979 52.4218 26.5019 52.0898 26.7151C51.8033 26.8933 51.5097 26.9912 51.2127 26.9912C50.7653 26.9912 50.4543 26.778 50.4333 26.7675C50.4089 26.7501 48.1094 24.6393 47.2671 23.9333C47.1343 23.825 46.998 23.7167 46.8757 23.7167C46.8023 23.7167 46.7394 23.7446 46.694 23.797C46.5612 23.9613 46.7115 24.1919 46.8827 24.3352L49.5666 27.0366C49.5666 27.0366 49.8986 27.3511 49.9336 27.7635C49.9511 28.2108 49.7379 28.5848 49.2976 28.8713C48.9865 29.0775 48.665 29.1859 48.3505 29.1859C47.9381 29.1859 47.6515 28.9972 47.5817 28.9517L47.1972 28.5778C46.4878 27.8858 45.7644 27.1624 45.2367 26.7256C45.1109 26.6173 44.9676 26.5194 44.8348 26.5194C44.7719 26.5194 44.709 26.5439 44.6636 26.5893C44.6007 26.6627 44.5587 26.778 44.709 26.9842C44.7719 27.0646 44.8418 27.1345 44.8418 27.1345L46.8023 29.3361C46.8198 29.3536 47.2042 29.8184 46.8478 30.2762L46.7744 30.3671C46.7115 30.4265 46.6521 30.4894 46.5961 30.5453C46.2641 30.8214 45.8168 30.8494 45.6386 30.8494C45.5407 30.8494 45.4534 30.8389 45.3695 30.8214C45.1738 30.7864 45.048 30.7305 44.9851 30.6606L44.9606 30.6327C44.8523 30.5278 43.8668 29.5144 43.0455 28.8364C42.9372 28.7455 42.8044 28.6302 42.6611 28.6302C42.5877 28.6302 42.5353 28.6582 42.4829 28.7106C42.3221 28.8888 42.5633 29.1474 42.6681 29.2488L44.3421 31.0905C44.3421 31.108 44.3141 31.1429 44.2792 31.2058C44.2163 31.2862 44.0206 31.4924 43.4125 31.5658C43.3391 31.5727 43.2587 31.5832 43.1888 31.5832C42.5633 31.5832 41.8993 31.2792 41.5498 31.0975C41.7036 30.769 41.7909 30.402 41.7909 30.0421C41.7909 28.6652 40.6726 27.5468 39.2957 27.5468C39.2713 27.5468 39.2328 27.5468 39.2083 27.5468C39.2503 26.9213 39.1629 25.7296 37.9468 25.2019C37.5973 25.0516 37.2478 24.9712 36.8983 24.9712C36.6293 24.9712 36.3811 25.0167 36.14 25.104C35.8884 24.6113 35.469 24.2548 34.9203 24.0661C34.6163 23.9613 34.3228 23.9054 34.0257 23.9054C33.5155 23.9054 33.0507 24.0591 32.6313 24.3527C32.2294 23.8529 31.6283 23.5559 30.9958 23.5559C30.4401 23.5559 29.9019 23.7796 29.5105 24.1745C28.9898 23.7796 26.9245 22.4655 21.4028 21.2144C21.1337 21.1515 20.5187 20.9803 20.1412 20.865C20.0783 21.1585 20.0364 21.4626 19.998 21.7666C19.998 21.7666 21.0184 22.0077 21.2141 22.0532C26.8616 23.3078 28.7207 24.6113 29.0353 24.8559C28.9269 25.1145 28.8745 25.3906 28.8745 25.6702C28.8745 26.8304 29.8216 27.781 30.9853 27.781C31.1181 27.781 31.2439 27.7705 31.3697 27.7425C31.548 28.6022 32.1036 29.2558 32.9633 29.5878C33.2114 29.6856 33.4631 29.731 33.7147 29.731C33.8754 29.731 34.0362 29.7136 34.1969 29.6681C34.3577 30.07 34.7177 30.5698 35.5109 30.8948C35.7905 31.0101 36.0666 31.0625 36.3427 31.0625C36.5663 31.0625 36.783 31.0276 36.9892 30.9472C37.3736 31.8768 38.2753 32.4953 39.2957 32.4953C39.9667 32.4953 40.6132 32.2263 41.085 31.7335C41.4869 31.9572 42.3396 32.3591 43.1958 32.3591C43.3041 32.3591 43.4125 32.3521 43.5208 32.3416C44.37 32.2367 44.7719 31.9047 44.9501 31.6461C44.9851 31.6007 45.013 31.5553 45.041 31.5029C45.2367 31.5553 45.4604 31.6077 45.719 31.6077C46.1838 31.6077 46.6311 31.4469 47.0889 31.1184C47.5362 30.7934 47.8508 30.3391 47.8927 29.9442C47.8927 29.9372 47.8927 29.9372 47.8927 29.9267C48.0465 29.9547 48.1967 29.9722 48.3505 29.9722C48.8328 29.9722 49.2976 29.8184 49.7554 29.5249C50.6221 28.9517 50.7758 28.2108 50.7583 27.7251C50.9086 27.7635 51.0624 27.7705 51.2231 27.7705C51.6705 27.7705 52.1178 27.6377 52.5371 27.3686C53.0753 27.0296 53.3968 26.5019 53.4493 25.8834C53.4842 25.464 53.3794 25.0411 53.1627 24.6847C54.6235 24.0591 57.9504 22.843 61.868 21.9553C61.8401 21.6513 61.7981 21.3472 61.7422 21.0537C56.9929 22.144 53.4597 23.6747 52.5721 24.0661ZM39.3132 31.7335C38.3941 31.7335 37.6427 31.0171 37.6148 30.105C37.6148 30.0246 37.6043 29.8184 37.426 29.8184C37.3561 29.8184 37.2932 29.8638 37.2199 29.9267C37.0137 30.1155 36.7655 30.3042 36.3811 30.3042C36.2099 30.3042 36.0212 30.2657 35.8255 30.1853C34.8504 29.7939 34.84 29.123 34.8784 28.8539C34.8854 28.7805 34.8959 28.7106 34.84 28.6477L34.7875 28.6023H34.7246C34.6722 28.6023 34.6268 28.6197 34.5534 28.6756C34.2773 28.8713 34.0012 28.9692 33.7321 28.9692C33.5784 28.9692 33.4281 28.9412 33.2673 28.8818C31.9883 28.3786 32.0861 27.1729 32.149 26.813C32.156 26.7431 32.1386 26.6802 32.0931 26.6452L32.0058 26.5718L31.9254 26.6347C31.6738 26.8759 31.3522 27.0122 31.0028 27.0122C30.2689 27.0122 29.6713 26.4111 29.6713 25.6772C29.6713 24.9433 30.2689 24.3457 31.0028 24.3527C31.6668 24.3527 32.2294 24.8559 32.3168 25.5164L32.3622 25.8729L32.5614 25.5688C32.5789 25.5339 33.1241 24.7196 34.1061 24.7196C34.2948 24.7196 34.494 24.7476 34.6897 24.8105C35.476 25.0516 35.6123 25.768 35.6298 26.0616C35.6472 26.2328 35.7626 26.2398 35.7905 26.2398C35.8604 26.2398 35.9058 26.1979 35.9408 26.1595C36.0946 26.0092 36.4161 25.7506 36.9158 25.7506C37.15 25.7506 37.3911 25.803 37.6497 25.9113C38.9043 26.446 38.3312 28.0396 38.3312 28.0571C38.2228 28.3157 38.2124 28.4345 38.3207 28.5044L38.3661 28.5324H38.4011C38.457 28.5324 38.5269 28.5044 38.6422 28.4695C38.8134 28.4066 39.072 28.3262 39.3132 28.3262C40.2533 28.3332 41.0221 29.1055 41.0221 30.0351C41.0221 30.9752 40.2533 31.7335 39.3132 31.7335Z" fill="#283373"/>
<path d="M136.938 13.5995C136.151 12.614 134.96 12.1248 133.359 12.1248C131.759 12.1248 130.567 12.614 129.781 13.5995C128.994 14.585 128.599 15.7453 128.599 17.0872C128.599 18.4572 128.994 19.6209 129.781 20.5959C130.567 21.5605 131.759 22.0532 133.359 22.0532C134.96 22.0532 136.151 21.5709 136.938 20.5959C137.724 19.6209 138.119 18.4572 138.119 17.0872C138.119 15.7453 137.724 14.585 136.938 13.5995ZM134.988 19.2435C134.603 19.7537 134.058 20.0053 133.352 20.0053C132.636 20.0053 132.091 19.7537 131.703 19.2435C131.318 18.7367 131.133 18.0203 131.133 17.0872C131.133 16.1576 131.318 15.4342 131.703 14.9345C132.091 14.4313 132.636 14.1796 133.352 14.1796C134.065 14.1796 134.61 14.4313 134.988 14.9345C135.372 15.4342 135.561 16.1576 135.561 17.0872C135.561 18.0203 135.372 18.7437 134.988 19.2435Z" fill="#283373"/>
<path d="M116.843 12.7677C116.046 12.3659 115.134 12.1597 114.107 12.1597C112.531 12.1597 111.412 12.572 110.762 13.3933C110.35 13.921 110.126 14.592 110.07 15.4062H112.433C112.489 15.0498 112.604 14.7632 112.782 14.5466C113.023 14.2635 113.436 14.1202 114.026 14.1202C114.544 14.1202 114.949 14.1901 115.215 14.3439C115.484 14.4871 115.62 14.7527 115.62 15.1372C115.62 15.4517 115.438 15.6858 115.092 15.8361C114.893 15.927 114.572 15.9969 114.117 16.0528L113.282 16.1576C112.335 16.2764 111.612 16.4791 111.126 16.7587C110.231 17.2759 109.784 18.1007 109.784 19.2539C109.784 20.1381 110.063 20.83 110.619 21.3018C111.171 21.7841 111.881 21.9903 112.73 22.0287C118.059 22.2699 118.007 19.219 118.052 18.5829V15.0743C118.042 13.949 117.64 13.1801 116.843 12.7677ZM115.599 18.1007C115.582 18.9149 115.351 19.4776 114.904 19.7921C114.456 20.1031 113.964 20.2569 113.425 20.2569C113.086 20.2569 112.8 20.166 112.569 19.9773C112.335 19.7921 112.22 19.4881 112.22 19.0757C112.22 18.6109 112.408 18.2614 112.793 18.0378C113.023 17.9015 113.39 17.7966 113.918 17.7058L114.474 17.5974C114.75 17.545 114.967 17.4926 115.127 17.4297C115.288 17.3668 115.438 17.2934 115.599 17.1955V18.1007Z" fill="#283373"/>
<path d="M104.678 14.253C105.286 14.253 105.734 14.4417 106.027 14.8156C106.226 15.0952 106.349 15.4062 106.394 15.7557H109.026C108.882 14.4312 108.417 13.5016 107.631 12.9739C106.841 12.4532 105.831 12.1876 104.605 12.1876C103.158 12.1876 102.019 12.6349 101.197 13.5191C100.373 14.4033 99.9638 15.6474 99.9638 17.2514C99.9638 18.6633 100.338 19.8166 101.082 20.7112C101.823 21.5989 102.987 22.0462 104.57 22.0462C106.153 22.0462 107.345 21.508 108.148 20.4421C108.648 19.7816 108.935 19.0827 108.998 18.3418H106.377C106.324 18.8346 106.17 19.226 105.922 19.5405C105.671 19.8445 105.241 20.0053 104.64 20.0053C103.791 20.0053 103.21 19.6209 102.906 18.8415C102.735 18.4292 102.655 17.877 102.655 17.1955C102.655 16.4791 102.746 15.9095 102.906 15.4692C103.217 14.6654 103.808 14.253 104.678 14.253Z" fill="#283373"/>
<path d="M99.2543 12.1946C93.8515 12.1946 94.173 16.9824 94.173 16.9824V21.84H96.6263V17.2759C96.6263 16.535 96.7242 15.9794 96.9024 15.6124C97.2414 14.9764 97.8949 14.6549 98.8804 14.6549C98.9503 14.6549 99.0482 14.6549 99.174 14.6654C99.2928 14.6723 99.4256 14.6828 99.5863 14.7003V12.2121C99.478 12.2051 99.4081 12.2051 99.3802 12.1946C99.3452 12.1946 99.2998 12.1946 99.2543 12.1946Z" fill="#283373"/>
<path d="M90.245 19.2993C90.1402 19.4426 90.0318 19.5684 89.906 19.6663C89.5566 19.9529 89.0918 20.0402 88.5361 20.0402C88.0084 20.0402 87.6065 19.9598 87.2326 19.7292C86.6245 19.3518 86.275 18.7157 86.2401 17.7791H93.0303C93.0373 16.9719 93.0093 16.3568 92.9499 15.927C92.8311 15.1931 92.59 14.557 92.2055 14.0014C91.7862 13.3758 91.248 12.911 90.5945 12.6245C89.941 12.3379 89.2176 12.1876 88.4033 12.1876C87.0334 12.1876 85.9256 12.614 85.0764 13.4737C84.2167 14.3334 83.7868 15.5775 83.7868 17.1885C83.7868 18.9149 84.2621 20.159 85.2091 20.9174C86.1597 21.6792 87.2501 22.0637 88.4942 22.0637C89.9969 22.0637 91.1676 21.6059 91.9994 20.7042C92.4467 20.2289 92.7332 19.7537 92.8486 19.2889H90.245V19.2993ZM86.953 14.7353C87.3025 14.3788 87.7847 14.2076 88.4138 14.2076C88.9834 14.2076 89.4692 14.3788 89.8606 14.7108C90.245 15.0393 90.4687 15.5321 90.5071 16.1751H86.31C86.3904 15.567 86.607 15.0847 86.953 14.7353Z" fill="#283373"/>
<path d="M82.8048 21.84H80.5682V16.1926C80.5682 15.6753 80.3969 14.4487 78.9187 14.4487C77.9366 14.4487 77.2202 15.1581 77.2202 16.1926V21.84H74.9766V16.1926C74.9766 15.6753 74.8229 14.4487 73.3481 14.4487C72.3451 14.4487 71.6462 15.1581 71.6462 16.1926V21.84H69.4026V16.2485C69.4026 13.921 70.9507 12.1597 73.3376 12.1597C74.5293 12.1597 75.4938 12.6594 76.1194 13.4562C76.7834 12.6594 77.7654 12.1597 78.9012 12.1597C81.344 12.1597 82.7943 13.8511 82.7943 16.2485V21.84H82.8048Z" fill="#283373"/>
<path d="M127.866 9.25208C127.866 9.25208 125.398 8.99347 125.398 10.968V13.5995C125.119 13.1627 124.769 12.8202 124.332 12.572C123.896 12.3204 123.392 12.1946 122.83 12.1946C121.603 12.1946 120.628 12.6524 119.894 13.5645C119.16 14.4767 118.793 15.7907 118.793 17.3843C118.793 18.7612 119.171 19.8969 119.912 20.7741C120.656 21.6513 122.113 22.0357 123.41 22.0357C127.928 22.0357 127.876 18.1636 127.876 18.1636L127.866 9.25208ZM124.923 19.2714C124.567 19.7816 124.039 20.0402 123.347 20.0402C122.658 20.0402 122.141 19.7816 121.809 19.2644C121.47 18.7437 121.299 17.9923 121.299 17.1326C121.299 16.3358 121.47 15.6649 121.802 15.1302C122.131 14.592 122.658 14.3229 123.368 14.3229C123.833 14.3229 124.242 14.4767 124.601 14.7702C125.175 15.263 125.461 16.1401 125.461 17.2759C125.468 18.0902 125.279 18.7542 124.923 19.2714Z" fill="#283373"/>
<path d="M99.7576 33.5578C99.6597 33.701 99.5409 33.8269 99.4256 33.9247C99.0761 34.2113 98.5939 34.3091 98.0487 34.3091C97.528 34.3091 97.1261 34.2287 96.7521 33.9981C96.1406 33.6207 95.8191 32.9776 95.7841 32.048H102.511C102.522 31.2513 102.494 30.6432 102.431 30.2133C102.316 29.4899 102.075 28.8539 101.697 28.2982C101.278 27.6727 100.74 27.2254 100.107 26.9283C99.4605 26.6452 98.7371 26.502 97.9299 26.502C96.5809 26.502 95.4801 26.9283 94.6309 27.781C93.7817 28.6372 93.3588 29.8639 93.3588 31.4574C93.3588 33.1664 93.8236 34.4 94.7741 35.1513C95.7142 35.9132 96.7941 36.2871 98.0312 36.2871C99.5165 36.2871 100.677 35.8398 101.501 34.9382C101.949 34.4629 102.225 33.9981 102.344 33.5333H99.7576V33.5578ZM96.49 29.0321C96.8325 28.6826 97.3148 28.5044 97.9299 28.5044C98.503 28.5044 98.9783 28.6757 99.3627 29.0042C99.7471 29.3362 99.9638 29.8184 100.006 30.4649H95.847C95.9379 29.8639 96.1511 29.3886 96.49 29.0321Z" fill="#283373"/>
<path d="M82.9026 26.5369C82.3365 26.5369 81.8368 26.6627 81.3999 26.9038C80.9596 27.152 80.6031 27.4945 80.334 27.9313V23.521C80.334 23.521 77.8633 23.2798 77.8633 25.2823V32.4325C77.8633 32.4325 77.8109 36.3046 82.3295 36.3046C83.626 36.3046 85.0833 35.9202 85.8277 35.036C86.5686 34.1589 86.946 33.0231 86.946 31.6462C86.946 30.0526 86.5791 28.8085 85.8452 27.8963C85.1008 26.9912 84.1258 26.5369 82.9026 26.5369ZM83.9126 33.5403C83.5736 34.061 83.0634 34.3091 82.3749 34.3091C81.6865 34.3091 81.1553 34.061 80.7988 33.5403C80.4424 33.0301 80.2606 32.3696 80.2606 31.5448C80.2606 30.409 80.5472 29.5948 81.1203 29.1055C81.4803 28.8085 81.8822 28.6582 82.3575 28.6582C83.0704 28.6582 83.5911 28.9238 83.9231 29.462C84.2516 30.0002 84.4228 30.6711 84.4228 31.4644C84.4228 32.3346 84.2516 33.0231 83.9126 33.5403Z" fill="#283373"/>
<path d="M92.887 26.5264C92.8486 26.5264 92.8136 26.5264 92.7682 26.5264C87.3654 26.5264 87.6799 31.3141 87.6799 31.3141V36.0984H90.1297V31.6182C90.1297 30.8668 90.2205 30.3216 90.4162 29.9617C90.7482 29.3292 91.4087 29.0041 92.3942 29.0041C92.4641 29.0041 92.562 29.0041 92.6808 29.0146C92.7961 29.0251 92.9394 29.0321 93.0932 29.0496V26.5544C92.9918 26.5264 92.9219 26.5264 92.887 26.5264Z" fill="#283373"/>
<path d="M69.4026 25.2823V36.0809H71.7021V23.521C71.7091 23.521 69.4026 23.4231 69.4026 25.2823Z" fill="#283373"/>
<path d="M73.5892 23.5035H76.0495V25.9463H73.5892V23.5035Z" fill="#283373"/>
<path d="M73.5892 26.778H76.0565V36.0914H73.5892V26.778Z" fill="#283373"/>
</svg>
