<svg width="197" height="45" viewBox="0 0 197 45" fill="none" xmlns="http://www.w3.org/2000/svg">
<g clip-path="url(#clip0_1494_16314)">
<mask id="mask0_1494_16314" style="mask-type:luminance" maskUnits="userSpaceOnUse" x="16" y="11" width="165" height="29">
<path d="M16.3477 11.799H180.713V39.6877H16.3477V11.799Z" fill="white"/>
</mask>
<g mask="url(#mask0_1494_16314)">
<mask id="mask1_1494_16314" style="mask-type:luminance" maskUnits="userSpaceOnUse" x="16" y="11" width="165" height="29">
<path d="M16.3478 39.6877H180.713V11.799H16.3478V39.6877Z" fill="white"/>
</mask>
<g mask="url(#mask1_1494_16314)">
<path d="M80.8047 14.8519C80.8047 13.4676 81.9221 12.3479 83.2975 12.3479C84.6777 12.3479 85.7994 13.4676 85.7994 14.8519C85.7994 16.2345 84.6777 17.3554 83.2975 17.3554C81.9221 17.3554 80.8047 16.2345 80.8047 14.8519Z" fill="#273B7D"/>
<path d="M120.211 31.5074C120.211 30.1225 121.328 29.0016 122.704 29.0016C124.083 29.0016 125.205 30.1225 125.205 31.5074C125.205 32.8888 124.083 34.0109 122.704 34.0109C121.328 34.0109 120.211 32.8888 120.211 31.5074Z" fill="#499FDD"/>
<path d="M39.8142 30.4251C37.6632 30.4251 36.1683 28.7167 36.1683 26.2756C36.1683 23.835 37.6632 22.1279 39.8142 22.1279C41.9775 22.1279 43.4888 23.835 43.4888 26.2756C43.4888 28.7553 42.009 30.4251 39.8142 30.4251ZM39.8142 18.481C35.2634 18.481 31.9608 21.76 31.9608 26.2756C31.9608 30.7912 35.2634 34.0696 39.8142 34.0696C44.382 34.0696 47.6983 30.7912 47.6983 26.2756C47.6983 21.76 44.382 18.481 39.8142 18.481Z" fill="#273B7D"/>
<path d="M75.9675 26.6654C75.7906 26.3325 75.5878 26.0507 75.3717 25.827L75.2342 25.681L75.379 25.5422C75.5879 25.322 75.8014 25.0609 76.0073 24.7583L80.0232 18.7883H75.1481L72.1307 23.4582C71.9599 23.7086 71.6151 23.835 71.0988 23.835H70.4111V15.0062C70.4111 13.2403 69.311 12.9999 68.1225 12.9999H66.0879L66.0913 33.84H70.4111V27.5887H70.8158C71.3082 27.5887 71.6436 27.6457 71.7974 27.9133L74.1803 32.4111C74.846 33.6317 75.5094 33.84 76.7573 33.84H80.0678L77.6023 29.7617L75.9675 26.6654Z" fill="#273B7D"/>
<path d="M96.9382 18.4478C94.7409 18.4478 93.3389 19.4239 92.5533 20.2493L92.2909 20.5145L92.1984 20.1537C91.9676 19.2696 91.1896 18.783 90.0189 18.783H88.0829L88.095 33.8347H92.3854V26.8975C92.3854 26.2192 92.4736 25.6306 92.6529 25.0936C93.1306 23.4683 94.4627 22.4578 96.1278 22.4578C97.467 22.4578 97.9903 23.1645 97.9903 24.991V31.5466C97.9903 33.1054 98.7113 33.8347 100.271 33.8347H102.313L102.306 24.2617C102.306 20.4581 100.45 18.4478 96.9382 18.4478Z" fill="#273B7D"/>
<path d="M83.3543 18.7895H81.3207L81.3346 30.4275L81.3332 33.8382H83.5038C83.5312 33.8382 83.5531 33.8411 83.5804 33.8411L84.5914 33.8382H85.5978V33.8323H85.6048L85.6136 21.0747C85.6136 19.5354 84.8762 18.7895 83.3543 18.7895Z" fill="#273B7D"/>
<path d="M56.6667 30.4251C54.5158 30.4251 53.0181 28.7167 53.0181 26.2756C53.0181 23.835 54.5158 22.1279 56.6667 22.1279C58.8255 22.1279 60.3409 23.835 60.3409 26.2756C60.3409 28.7553 58.8617 30.4251 56.6667 30.4251ZM56.6667 18.481C52.1114 18.481 48.8081 21.76 48.8081 26.2756C48.8081 30.7912 52.1114 34.0696 56.6667 34.0696C61.2298 34.0696 64.5515 30.7912 64.5515 26.2756C64.5515 21.76 61.2298 18.481 56.6667 18.481Z" fill="#273B7D"/>
</g>
</g>
<mask id="mask2_1494_16314" style="mask-type:luminance" maskUnits="userSpaceOnUse" x="16" y="11" width="165" height="29">
<path d="M16.3477 11.799H180.713V39.6877H16.3477V11.799Z" fill="white"/>
</mask>
<g mask="url(#mask2_1494_16314)">
<mask id="mask3_1494_16314" style="mask-type:luminance" maskUnits="userSpaceOnUse" x="16" y="12" width="165" height="28">
<path d="M16.3475 12.3479H180.678V39.6521H16.3475V12.3479Z" fill="white"/>
</mask>
<g mask="url(#mask3_1494_16314)">
<mask id="mask4_1494_16314" style="mask-type:luminance" maskUnits="userSpaceOnUse" x="16" y="11" width="165" height="29">
<path d="M16.3474 39.6877H180.713V11.799H16.3474V39.6877Z" fill="white"/>
</mask>
<g mask="url(#mask4_1494_16314)">
<path d="M148.631 30.4251C146.481 30.4251 144.982 28.7167 144.982 26.2756C144.982 23.835 146.481 22.1279 148.631 22.1279C150.79 22.1279 152.307 23.835 152.307 26.2756C152.307 28.7553 150.827 30.4251 148.631 30.4251ZM148.631 18.481C144.077 18.481 140.774 21.76 140.774 26.2756C140.774 30.7912 144.077 34.0696 148.631 34.0696C153.195 34.0696 156.516 30.7912 156.516 26.2756C156.516 21.76 153.195 18.481 148.631 18.481Z" fill="#499FDD"/>
<path d="M111.352 29.7629C109.007 29.7629 108.172 27.7163 108.172 25.7985C108.172 24.9536 108.385 22.1997 111.127 22.1997C112.489 22.1997 114.305 22.5901 114.305 25.9404C114.305 29.1001 112.698 29.7629 111.352 29.7629ZM116.532 18.7492C115.718 18.7492 115.092 19.0738 114.778 19.6666L114.659 19.8968L114.46 19.7241C113.768 19.1248 112.526 18.4139 110.51 18.4139C106.498 18.4139 103.797 21.4271 103.797 25.9113C103.797 30.3901 106.592 33.5201 110.59 33.5201C111.956 33.5201 113.036 33.2015 113.891 32.5535L114.222 32.3049V32.7232C114.222 34.7336 112.922 35.8426 110.566 35.8426C109.42 35.8426 108.378 35.5638 107.681 35.311C106.77 35.0362 106.237 35.2635 105.868 36.1767L105.527 37.0193L105.045 38.25L105.344 38.409C106.852 39.2095 108.816 39.6871 110.59 39.6871C114.244 39.6871 118.511 37.8168 118.511 32.5535L118.526 18.7492H116.532Z" fill="#273B7D"/>
</g>
</g>
</g>
<mask id="mask5_1494_16314" style="mask-type:luminance" maskUnits="userSpaceOnUse" x="16" y="11" width="165" height="29">
<path d="M16.3477 11.799H180.713V39.6877H16.3477V11.799Z" fill="white"/>
</mask>
<g mask="url(#mask5_1494_16314)">
<mask id="mask6_1494_16314" style="mask-type:luminance" maskUnits="userSpaceOnUse" x="16" y="11" width="165" height="29">
<path d="M16.3478 39.6877H180.713V11.799H16.3478V39.6877Z" fill="white"/>
</mask>
<g mask="url(#mask6_1494_16314)">
<path d="M23.8353 30.2524L20.3427 30.2489V26.0733C20.3427 25.1809 20.6887 24.7169 21.4535 24.6101H23.8353C25.5353 24.6101 26.6337 25.6823 26.6349 27.4167C26.6337 29.1969 25.5626 30.2512 23.8353 30.2524ZM20.3427 18.9883V17.8894C20.3427 16.9275 20.7497 16.47 21.6429 16.4113H23.43C24.9626 16.4113 25.8806 17.3286 25.8806 18.8631C25.8806 20.0332 25.2523 21.3986 23.4863 21.3986H20.3427V18.9883ZM28.2958 23.1556L27.6643 22.8008L28.2155 22.3296C28.8565 21.7784 29.9311 20.5394 29.9311 18.3985C29.9311 15.123 27.3903 13.0088 23.4579 13.0088H18.9702L18.4593 13.0077C17.2934 13.0504 16.3606 13.9986 16.3475 15.1717V33.764H18.407C18.4122 33.7652 18.414 33.764 18.4157 33.7652L23.5465 33.764C27.9179 33.764 30.7395 31.3846 30.7395 27.6991C30.7395 25.7148 29.8285 24.0184 28.2958 23.1556Z" fill="#273B7D"/>
<path d="M175.682 18.4964C173.902 18.4964 172.181 19.3301 171.076 20.7281L170.765 21.1221L170.521 20.6812C169.727 19.2322 168.359 18.4964 166.457 18.4964C164.463 18.4964 163.125 19.609 162.504 20.2706L162.098 20.7109L161.941 20.1318C161.714 19.2981 160.972 18.8388 159.848 18.8388H158.044L158.027 33.8323H162.124V27.2137C162.124 26.634 162.196 26.0602 162.341 25.4603C162.733 23.8611 163.808 22.1409 165.615 22.313C166.729 22.4198 167.273 23.2808 167.273 24.9441V33.8323H171.399V27.2137C171.399 26.4892 171.467 25.9469 171.63 25.4027C171.963 23.876 173.085 22.3107 174.828 22.3107C176.089 22.3107 176.556 23.0251 176.556 24.9441V31.6403C176.556 33.1552 177.232 33.8323 178.745 33.8323H180.674L180.677 24.2605C180.677 20.4368 178.995 18.4964 175.682 18.4964Z" fill="#499FDD"/>
<path d="M138.402 28.6266C138.39 28.6414 136.627 30.5005 134.305 30.5005C132.191 30.5005 130.054 29.2027 130.054 26.3059C130.054 23.8048 131.711 22.0567 134.082 22.0567C134.852 22.0567 135.728 22.3326 135.865 22.7966L135.885 22.875C136.201 23.927 137.157 23.9834 137.345 23.9834L139.589 23.9858V22.0235C139.589 19.4352 136.297 18.4965 134.082 18.4965C129.344 18.4965 125.907 21.7951 125.907 26.3374C125.907 30.8779 129.307 34.1718 133.995 34.1718C138.063 34.1718 140.275 31.498 140.295 31.4713L140.414 31.3265L138.636 28.3774L138.402 28.6266Z" fill="#499FDD"/>
</g>
</g>
</g>
<defs>
<clipPath id="clip0_1494_16314">
<rect width="165.026" height="28" fill="white" transform="translate(16 12)"/>
</clipPath>
</defs>
</svg>
