<svg width="24" height="25" viewBox="0 0 24 25" fill="none" xmlns="http://www.w3.org/2000/svg">
<path d="M21.5933 7.6366C21.4794 7.214 21.2568 6.82861 20.9477 6.51877C20.6386 6.20893 20.2537 5.98546 19.8313 5.8706C18.2653 5.4406 12.0003 5.4336 12.0003 5.4336C12.0003 5.4336 5.73633 5.4266 4.16933 5.8376C3.74725 5.95775 3.36315 6.18438 3.0539 6.49574C2.74464 6.80709 2.52062 7.19272 2.40333 7.6156C1.99033 9.1816 1.98633 12.4296 1.98633 12.4296C1.98633 12.4296 1.98233 15.6936 2.39233 17.2436C2.62233 18.1006 3.29733 18.7776 4.15533 19.0086C5.73733 19.4386 11.9853 19.4456 11.9853 19.4456C11.9853 19.4456 18.2503 19.4526 19.8163 19.0426C20.2388 18.9279 20.6241 18.705 20.934 18.3958C21.2439 18.0866 21.4677 17.7018 21.5833 17.2796C21.9973 15.7146 22.0003 12.4676 22.0003 12.4676C22.0003 12.4676 22.0203 9.2026 21.5933 7.6366ZM9.99633 15.4386L10.0013 9.4386L15.2083 12.4436L9.99633 15.4386Z" fill="white"/>
</svg>
